Dashiel Hammett's The Glass Key, a tale of big-city political corruption, was first filmed in 1935, with Edward Arnold as a duplicitous political boss and George Raft as his loyal lieutenant. This 1942 remake improves on the original, especially in replacing the stolid Raft with the charismatic Alan Ladd.
Brian Donlevy essays the role of the boss, who is determined to back reform candidate Moroni Olsen, despite Ladd's gut feeling that this move is a mistake. Ladd knows that Donlevy is doing a political about-face merely to get in solid with Olsen's pretty daughter Veronica Lake. It is Ladd who is left to clean up the mess when crime lord Joseph Calleila murders Olsen's wastrel son Richard Denning and pins the rap on Donlevy. As Ladd struggles to clear Donlevy's name, he falls in love with Lake—when he's not being pummeled about by Calleila's psychopathic henchman William Bendix.
Far less complex than the Dashiel Hammett original (and far less damning of the American political system), The Glass Key further increased the box-office pull of Paramount's new team of Alan Ladd and Veronica Lake.

   General
      Complete name : The Glass Key.avi
      Format : AVI
      Format/Info : Audio Video Interleave
      File size : 700 MiB
      Duration : 1h 23mn
      Overall bit rate : 1 176 Kbps
   Video #0
      ID : 0
      Format : MPEG-4 Visual
      Format profile : AdvancedSimple@L5
      Format settings, BVOP : Yes
      Format settings, QPel : No
      Format settings, GMC : No warppoints
      Format settings, Matrix : Default (H.263)
      Codec ID : XVID
      Codec ID/Hint : XviD
      Duration : 1h 23mn
      Bit rate : 1 105 Kbps
      Width : 576 pixels
      Height : 432 pixels
      Display aspect ratio : 4:3
      Frame rate : 25.000 fps
      Resolution : 24 bits
      Colorimetry : 4:2:0
      Scan type : Progressive
      Bits/(Pixel*Frame) : 0.178
      Stream size : 657 MiB (94%)
      Writing library : XviD 1.2.0.dev47 (UTC 2006-11-01)
   Audio #1
      ID : 1
      Format : MPEG Audio
      Format version : Version 1
      Format profile : Layer 3
      Codec ID : 55
      Codec ID/Hint : MP3
      Duration : 1h 23mn
      Bit rate mode : Variable
      Bit rate : 58.3 Kbps
      Nominal bit rate : 64.0 Kbps
      Channel(s) : 1 channel
      Sampling rate : 48.0 KHz
      Resolution : 16 bits
      Stream size : 34.7 MiB (5%)
      Alignment : Aligned on interleaves
      Interleave, duration : 24 ms (0.60 video frame)
      Interleave, preload duration : 526 ms
      Writing library : LAME3.97 
      Encoding settings : -m m -V 4 -q 2 -lowpass 16.5 --abr 64
 
http://www.imdb.com/title/tt0034798/

English audio; English, French, Spanish and Portuguese subtitles

Credits to Ursuletz, at Karagarga